<svg xmlns="http://www.w3.org/2000/svg" viewBox="0 0 120 120" fill="none">
  <path d="M60 20c-13.3 0-24 10.7-24 24 0 8.2 4.1 15.5 10.4 20l13.6 13.6 13.6-13.6C79.9 59.5 84 52.2 84 44c0-13.3-10.7-24-24-24z"
        stroke="#3D3229" stroke-width="3" stroke-linecap="round" stroke-linejoin="round" fill="none"/>
  <path d="M60 100c13.3 0 24-10.7 24-24 0-8.2-4.1-15.5-10.4-20L60 42.4 46.4 56C40.1 60.5 36 67.8 36 76c0 13.3 10.7 24 24 24z"
        stroke="#3D3229" stroke-width="3" stroke-linecap="round" stroke-linejoin="round" fill="none"/>
</svg>
