<svg xmlns="http://www.w3.org/2000/svg" viewBox="0 0 360 120" fill="none">
  <path d="M60 30c-11 0-20 9-20 20 0 6.8 3.4 12.9 8.7 16.7L60 78l11.3-11.3C76.6 62.9 80 56.8 80 50c0-11-9-20-20-20z"
        stroke="#3D3229" stroke-width="2.5" stroke-linecap="round" stroke-linejoin="round" fill="none"/>
  <path d="M60 90c11 0 20-9 20-20 0-6.8-3.4-12.9-8.7-16.7L60 42 48.7 53.3C43.4 57.1 40 63.2 40 70c0 11 9 20 20 20z"
        stroke="#3D3229" stroke-width="2.5" stroke-linecap="round" stroke-linejoin="round" fill="none"/>

  <text x="120" y="72" font-family="Lora, Georgia, serif" font-size="40" font-weight="500" fill="#3D3229" letter-spacing="3">KNOT</text>
</svg>
